<?xml version="1.0"?>
<svg xmlns="http://www.w3.org/2000/svg" xmlns:xlink="http://www.w3.org/1999/xlink" xmlns:svgjs="http://svgjs.com/svgjs" version="1.1" width="512px" height="512px" x="0" y="0" viewBox="0 0 24 24" style="enable-background:new 0 0 512 512" xml:space="preserve"><g><path d="m18 13.5v-5.929a6.457 6.457 0 0 0 -1.9-4.6l-1.075-1.071a6.457 6.457 0 0 0 -4.6-1.9h-2.925a5.506 5.506 0 0 0 -5.5 5.5v8a5.506 5.506 0 0 0 5.5 5.5h5a5.506 5.506 0 0 0 5.5-5.5zm-13 0v-8a2.5 2.5 0 0 1 2.5-2.5h2.929a3.5 3.5 0 0 1 .571.056v1.944a2 2 0 0 0 2 2h1.944a3.5 3.5 0 0 1 .056.571v5.929a2.5 2.5 0 0 1 -2.5 2.5h-5a2.5 2.5 0 0 1 -2.5-2.5zm18-5v10a5.506 5.506 0 0 1 -5.5 5.5h-8a1.5 1.5 0 0 1 0-3h8a2.5 2.5 0 0 0 2.5-2.5v-10a1.5 1.5 0 0 1 3 0z" fill="#283035" data-original="#000000"/></g></svg>
