<svg xmlns="http://www.w3.org/2000/svg" version="1.1" xmlns:xlink="http://www.w3.org/1999/xlink" xmlns:svgjs="http://svgjs.com/svgjs" width="512" height="512" x="0" y="0" viewBox="0 0 24 24" style="enable-background:new 0 0 512 512" xml:space="preserve" class=""><g><path d="M24 11.246A12.011 12.011 0 1 0 12.017 24H18.5a5.507 5.507 0 0 0 5.5-5.5v-7.16ZM21 18.5a2.5 2.5 0 0 1-2.5 2.5h-6.483a9.041 9.041 0 0 1-6.731-3.011 8.926 8.926 0 0 1-2.227-7.034 9.038 9.038 0 0 1 7.788-7.882A9.484 9.484 0 0 1 12.02 3a8.933 8.933 0 0 1 5.739 2.066A9.038 9.038 0 0 1 21 11.389Z" fill="#ffffff" data-original="#000000" class=""></path><path d="M9.5 11h3a1.5 1.5 0 0 0 0-3h-3a1.5 1.5 0 0 0 0 3ZM16.5 13h-7a1.5 1.5 0 0 0 0 3h7a1.5 1.5 0 0 0 0-3Z" fill="#ffffff" data-original="#000000" class=""></path></g></svg>