<svg xmlns="http://www.w3.org/2000/svg" version="1.1" xmlns:xlink="http://www.w3.org/1999/xlink" xmlns:svgjs="http://svgjs.com/svgjs" width="512" height="512" x="0" y="0" viewBox="0 0 24 24" style="enable-background:new 0 0 512 512" xml:space="preserve" class=""><g><path d="M22 5.644V2.5a1.5 1.5 0 1 0-3 0v1.089L15.076.941a5.472 5.472 0 0 0-6.152 0l-6.5 4.386A5.492 5.492 0 0 0 0 9.886V18.5C0 21.533 2.468 24 5.5 24h3a1.5 1.5 0 0 0 1.5-1.5v-8a.5.5 0 0 1 .5-.5h3a.5.5 0 0 1 .5.5v8a1.5 1.5 0 0 0 1.5 1.5h3c3.032 0 5.5-2.467 5.5-5.5V9.886a5.488 5.488 0 0 0-2-4.242ZM21 18.5c0 1.378-1.121 2.5-2.5 2.5H17v-6.5c0-1.93-1.57-3.5-3.5-3.5h-3C8.57 11 7 12.57 7 14.5V21H5.5A2.503 2.503 0 0 1 3 18.5V9.886c0-.833.412-1.607 1.102-2.073l6.5-4.386a2.49 2.49 0 0 1 2.797 0l6.5 4.387a2.498 2.498 0 0 1 1.102 2.072V18.5Z" fill="#ffffff" data-original="#000000" class=""></path></g></svg>