<svg xmlns="http://www.w3.org/2000/svg" version="1.1" xmlns:xlink="http://www.w3.org/1999/xlink" xmlns:svgjs="http://svgjs.com/svgjs" width="512" height="512" x="0" y="0" viewBox="0 0 24 24" style="enable-background:new 0 0 512 512" xml:space="preserve" class=""><g><path d="M22 5.724V2a1 1 0 1 0-2 0v2.366L14.797.855a4.98 4.98 0 0 0-5.594 0l-7 4.724A4.995 4.995 0 0 0 0 9.724V19c0 2.757 2.243 5 5 5h2a1 1 0 0 0 1-1v-9c0-.551.448-1 1-1h6c.552 0 1 .449 1 1v9a1 1 0 0 0 1 1h2c2.757 0 5-2.243 5-5V9.724a4.995 4.995 0 0 0-2-4Z" fill="#ba68c8" data-original="#000000" class=""></path></g></svg>