<?xml version="1.0"?>
<svg xmlns="http://www.w3.org/2000/svg" xmlns:xlink="http://www.w3.org/1999/xlink" xmlns:svgjs="http://svgjs.com/svgjs" version="1.1" width="512px" height="512px" x="0" y="0" viewBox="0 0 24 24" style="enable-background:new 0 0 512 512" xml:space="preserve"><g><path d="M18,12a5.993,5.993,0,0,1-5.191-9H4.242L4.2,2.648A3,3,0,0,0,1.222,0H1A1,1,0,0,0,1,2h.222a1,1,0,0,1,.993.883l1.376,11.7A5,5,0,0,0,8.557,19H19a1,1,0,0,0,0-2H8.557a3,3,0,0,1-2.821-2H17.657a5,5,0,0,0,4.921-4.113l.238-1.319A5.984,5.984,0,0,1,18,12Z" fill="#ba68c8" data-original="#000000"/><circle cx="7" cy="22" r="2" fill="#ba68c8" data-original="#000000"/><circle cx="17" cy="22" r="2" fill="#ba68c8" data-original="#000000"/><path d="M15.733,8.946a1.872,1.872,0,0,0,1.345.6h.033a1.873,1.873,0,0,0,1.335-.553l4.272-4.272A1,1,0,1,0,21.3,3.3L17.113,7.494,15.879,6.17a1,1,0,0,0-1.463,1.366Z" fill="#ba68c8" data-original="#000000"/></g></svg>
