<svg version="1.1" xmlns="http://www.w3.org/2000/svg" xmlns:xlink="http://www.w3.org/1999/xlink" width="48px" height="48px" viewBox="0,0,255.99663,255.99663"><g fill="#ffffff" fill-rule="nonzero" stroke="none" stroke-width="1" stroke-linecap="butt" stroke-linejoin="miter" stroke-miterlimit="10" stroke-dasharray="" stroke-dashoffset="0" font-family="none" font-weight="none" font-size="none" text-anchor="none" style="mix-blend-mode: normal"><g transform="scale(5.33333,5.33333)"><path d="M39,4h-11c-1.591,0 -3.117,0.632 -4.242,1.757l-18,18c-2.343,2.343 -2.343,6.142 0,8.485l10,10c1.171,1.172 2.707,1.758 4.242,1.758c1.535,0 3.071,-0.586 4.242,-1.757l18,-18c1.126,-1.126 1.758,-2.652 1.758,-4.244v-10.999c0,-2.761 -2.239,-5 -5,-5zM34,17c-1.657,0 -3,-1.343 -3,-3c0,-1.657 1.343,-3 3,-3c1.657,0 3,1.343 3,3c0,1.657 -1.343,3 -3,3z"></path></g></g></svg>