<svg xmlns="http://www.w3.org/2000/svg" version="1.1" xmlns:xlink="http://www.w3.org/1999/xlink" xmlns:svgjs="http://svgjs.com/svgjs" width="512" height="512" x="0" y="0" viewBox="0 0 24 24" style="enable-background:new 0 0 512 512" xml:space="preserve" class=""><g><path d="M11.24 24a2.262 2.262 0 0 1-.948-.212 2.18 2.18 0 0 1-1.2-2.622L10.653 16H6.975A3 3 0 0 1 4.1 12.131l3.024-10A2.983 2.983 0 0 1 10 0h3.693a2.6 2.6 0 0 1 2.433 3.511L14.443 8H17a3 3 0 0 1 2.483 4.684l-6.4 10.3A2.2 2.2 0 0 1 11.24 24Z" fill="#ffffff" data-original="#000000" class=""></path></g></svg>